# xmcd
#
# Track frame offsets:
#	150
#	16086
#	32851
#	49084
#	62695
#	76728
#	91636
#	108283
#	123812
#	140246
#	157186
#	174743
#	191660
#	207892
#	225722
#	241096
#	257712
#	271439
#	297543
#	312463
#	329145
#	344464
#
# Disc length: 4783 seconds
#
# Revision: 0
# Processed by: cddbd v1.5.2PL0 Copyright (c) Steve Scherf et al.
# Submitted via: audiograbber 1.83.01
#
DISCID=4412ad16
DTITLE=Stefan Discofox - Schlager - Discofox
DYEAR=1900
DGENRE=rutz
TTITLE0=BRUNNER and BRUNNER - WIR SIND ALLE ÜBER 40  $
TTITLE1=ANDREA BERG - DU HAST MICH TAUSENDMAL BELOGEN  $
TTITLE2=WOLFGANG PETRY - KEIN GRUND ZUR PANIK
TTITLE3=IREEN SHEER - EIN KUß VON DIR  $
TTITLE4=MATHIAS REIM - HITMIX
TTITLE5=FANCY - FEUER UND EIS  $
TTITLE6=JÜRGEN DREWS - KEINER LIEBT MICH  $
TTITLE7=ANDREAS MARTIN - TAUSEND GUTE GRÜNDE
TTITLE8=ANDREA BERG - ICH STERBE NICHT NOCH MAL  $
TTITLE9=MIXED EMOTIONS - YOU WANT LOVE (MARIA MARIA)  $
TTITLE10=OLIVER FRANK - ITALIENISCHE SEHNSUCHT
TTITLE11=IREEN SHEER - HEUT ABEND HAB ICH KOPFWEH  $
TTITLE12=WOLFGANG PETRY - KEINE LUST AUF GAR NICHTS
TTITLE13=BRUNNER UND BRUNNER - DU ICH WILL DICH SEHN HEUT NACHT
TTITLE14=REX GILDO - NUR DU UND SONST GAR NICHTS
TTITLE15=MICHELLE - SCHMETTERLINGE SIND FREI
TTITLE16=IREEN SHEER - KOMM ICH MACH DAS SCHON
TTITLE17=ANDREAS MARTIN - HITMIX
TTITLE18=IBO - DANN TU ES DOCH
TTITLE19=TOMMY STEINER - PARLEZ VOUS FRANCAISE
TTITLE20=LOLLIES - FEUER UND FLAMME
TTITLE21=OLIVER FRANK - DAS SCHAFFST DU NIE
EXTD=
EXTT0=
EXTT1=
EXTT2=
EXTT3=
EXTT4=
EXTT5=
EXTT6=
EXTT7=
EXTT8=
EXTT9=
EXTT10=
EXTT11=
EXTT12=
EXTT13=
EXTT14=
EXTT15=
EXTT16=
EXTT17=
EXTT18=
EXTT19=
EXTT20=
EXTT21=
PLAYORDER=
